# xmcd CD database file
#
# Track frame offsets:
#	150
#	13131
#	23871
#	37767
#	52906
#	64472
#	83348
#	97956
#	111918
#	128137
#
# Disc length: 1932 seconds
#
# Revision: 0
# Processed by: cddbd v1.4PL0 Copyright (c) Steve Scherf et al.
# Submitted via: CDex 1.40Release
#
DISCID=73078a0a
DTITLE=Various Artist - Honky Tonk Saturday Night
DYEAR=1999
DGENRE=Country
TTITLE0=BIG OLD BREW/MEL MCDANIEL
TTITLE1=TWO DOLLARS IN THE JUKEBOX/EDDIE RABBITT
TTITLE2=WHISKEY, IF YOU WERE A WOMAN/HIGHWAY 101
TTITLE3=SOMETHING AVERAGE/ROY CLARK
TTITLE4=HONKY TONK WINE/MICKEY GILLEY
TTITLE5=LEAVE THE PAST BEHIND/JOE NICHOLS
TTITLE6=TEQUILA TELLS/EDDY RAVEN
TTITLE7=THE BITTER INN/JOHNNY RODRIGUEZ
TTITLE8=HONKY TONK SATURDAY NIGHT/BECKY HOBBS
TTITLE9=BEER BARREL POLKA/JOEY MISKULIN
EXTD=YEAR: 1999 ID3G: 2
EXTT0=
EXTT1=
EXTT2=
EXTT3=
EXTT4=
EXTT5=
EXTT6=
EXTT7=
EXTT8=
EXTT9=
PLAYORDER=
